<mxfile host="app.diagrams.net" modified="2021-05-24T12:47:05.474Z" agent="5.0 (Windows)" etag="plM7K6YMPf5gJ3QmAPbv" version="14.7.0" type="github">
  <diagram id="D6pN2KlvuyWCyQFsLhLv" name="Page-1">
    <mxGraphModel dx="2062" dy="1190" grid="1" gridSize="10" guides="1" tooltips="1" connect="1" arrows="1" fold="1" page="1" pageScale="1" pageWidth="827" pageHeight="1169" math="0" shadow="0">
      <root>
        <mxCell id="0" />
        <mxCell id="1" parent="0" />
        <mxCell id="BUkmciZ-O1DK0EQ_GQ1a-2" style="edgeStyle=orthogonalEdgeStyle;rounded=0;orthogonalLoop=1;jettySize=auto;html=1;" parent="1" source="BUkmciZ-O1DK0EQ_GQ1a-1" edge="1">
          <mxGeometry relative="1" as="geometry">
            <mxPoint x="397" y="110" as="targetPoint" />
          </mxGeometry>
        </mxCell>
        <mxCell id="BUkmciZ-O1DK0EQ_GQ1a-1" value="START" style="rounded=0;whiteSpace=wrap;html=1;" parent="1" vertex="1">
          <mxGeometry x="354" y="10" width="86" height="40" as="geometry" />
        </mxCell>
      </root>
    </mxGraphModel>
  </diagram>
</mxfile>
